<svg width="72" height="24" viewBox="0 0 72 24" fill="none" xmlns="http://www.w3.org/2000/svg">
<path fill-rule="evenodd" clip-rule="evenodd" d="M56.7303 0.143506C51.5122 1.13587 47.5666 4.92986 46.389 10.0874C46.2478 10.7061 46.1802 11.5978 46.1827 12.8154C46.1855 14.3354 46.2386 14.8225 46.5155 15.867C47.3429 18.9895 49.2341 21.6279 51.8911 23.367C52.4154 23.7102 52.9096 23.9892 52.9893 23.9873C53.1601 23.983 54.3616 21.9162 54.3616 21.6266C54.3616 21.2138 54.1742 20.9901 53.2393 20.2865C52.0197 19.3685 51.1449 18.2963 50.4116 16.8205C49.6432 15.2741 49.4089 14.1234 49.4906 12.2986C49.6244 9.31248 50.9954 6.7695 53.3941 5.05777C55.1028 3.83841 56.7315 3.32433 58.8951 3.32136C61.5998 3.31761 63.6004 4.15119 65.5441 6.09199C66.536 7.08228 66.8046 7.44649 67.3108 8.4873C68.0257 9.95756 68.3157 11.1799 68.3127 12.7116C68.3097 14.2171 68.0396 15.4248 67.4141 16.7292C66.7577 18.098 65.9136 19.1919 64.9213 19.9599C63.7608 20.8579 63.4054 21.2266 63.4054 21.5323C63.4054 21.7419 64.3708 23.6279 64.662 23.9871C64.7572 24.1046 65.9308 23.4015 66.8272 22.6902C72.8405 17.9171 73.2819 8.95254 67.7686 3.56864C66.1909 2.02784 64.1894 0.917783 61.9227 0.326448C60.603 -0.0179905 58.052 -0.107782 56.7303 0.143506ZM22.2181 5.76047C21.2765 6.08579 20.6467 6.63255 20.189 7.52194C19.3809 9.09272 19.796 11.1587 21.1237 12.1724C22.5721 13.2783 24.658 13.2749 26.1125 12.1644L26.7135 11.7053V10.2901V8.87489H24.9693H23.2252V9.58547V10.2961H24.1295H25.0339V10.6803C25.0339 11.665 22.8815 11.7894 22.0347 10.8537C21.7109 10.4958 21.416 9.71997 21.4193 9.23432C21.4317 7.3766 23.6389 6.30555 24.9217 7.5346L25.2859 7.88343L25.8067 7.64868C26.6309 7.27685 26.6665 7.15786 26.1302 6.5642C25.2551 5.59562 23.6501 5.2659 22.2181 5.76047ZM57.1581 5.72042C55.2437 6.18385 53.3469 7.6899 52.4936 9.42424C52.0012 10.4246 51.653 11.803 51.653 12.7508C51.653 14.3579 52.381 16.2217 53.4988 17.4758C54.0769 18.1242 55.511 19.2106 55.789 19.2106C55.8414 19.2106 56.1523 18.7379 56.4795 18.1601C57.2701 16.7648 57.2674 16.442 56.459 15.7603C54.7248 14.2981 54.5158 11.8189 55.9886 10.1808C56.8253 9.25021 57.6568 8.87463 58.8765 8.87618C60.0409 8.8776 60.8721 9.21197 61.6416 9.98831C62.4934 10.8476 62.6929 11.359 62.6939 12.6862C62.6947 13.7361 62.6574 13.9165 62.3093 14.5451C62.0973 14.9279 61.6468 15.4748 61.308 15.7603C60.4996 16.442 60.4969 16.7648 61.2875 18.1601C61.6147 18.7379 61.9078 19.2106 61.9385 19.2106C62.2428 19.2106 63.2548 18.484 63.9872 17.7399C66.8237 14.8574 66.7939 10.4206 63.9188 7.5899C62.1717 5.86964 59.5437 5.14291 57.1581 5.72042ZM0.874105 9.26248V12.88H3.00585H5.1376V12.1694V11.4588H3.84563H2.55366V8.5519V5.64497H1.71388H0.874105V9.26248ZM12.6956 6.22958C12.6246 6.25568 12.3194 6.34056 12.0173 6.41821C11.4875 6.55439 11.4683 6.57725 11.4683 7.07117C11.4683 7.55359 11.446 7.58292 11.0807 7.58292C10.7017 7.58292 10.6931 7.59726 10.6931 8.22891C10.6931 8.85551 10.7043 8.87489 11.0677 8.87489H11.4423L11.4876 10.5441C11.5297 12.0984 11.5543 12.2363 11.8442 12.5447C12.1945 12.9175 12.8133 13.0775 13.4385 12.9571C14.1771 12.8147 14.2504 12.7151 14.0667 12.1022C13.9298 11.6454 13.8628 11.5737 13.63 11.6345C13.1225 11.7672 13.0186 11.5153 13.0186 10.1511V8.87489H13.5354H14.0522V8.22891V7.58292H13.5354H13.0186V6.87234C13.0186 6.19095 12.9846 6.12351 12.6956 6.22958ZM34.7883 6.24031C34.7172 6.26046 34.4119 6.34056 34.11 6.41821C33.5802 6.55439 33.5609 6.57725 33.5609 7.07117C33.5609 7.56987 33.5494 7.58292 33.1087 7.58292H32.6565V8.22891V8.87489H33.1087H33.5609V10.4984C33.5609 11.3913 33.6207 12.2336 33.694 12.3703C33.9211 12.7949 34.5693 13.0445 35.2694 12.9772C36.0911 12.8982 36.2243 12.7591 36.0713 12.1396C35.9723 11.7384 35.8942 11.6526 35.6281 11.6526C35.0366 11.6526 34.9821 11.5264 34.9821 10.1592V8.87489H35.4989H36.0157V8.22891V7.58292H35.5053H34.995L34.9562 6.89327C34.9348 6.5124 34.8596 6.22002 34.7883 6.24031ZM7.02866 7.643C5.11835 8.32399 4.65945 10.9618 6.21381 12.3265C7.05385 13.0642 8.56158 13.2067 9.6352 12.6499C10.218 12.3477 10.2672 12.1498 9.87964 11.6686C9.58508 11.303 9.57384 11.3004 9.1741 11.5071C8.95072 11.6226 8.49892 11.7172 8.17024 11.7172C7.68175 11.7172 7.50333 11.6481 7.19481 11.3396C6.98706 11.1318 6.81716 10.8993 6.81716 10.8228C6.81716 10.7295 7.45927 10.6836 8.763 10.6836H10.709L10.6194 10.07C10.4861 9.15434 10.2003 8.53523 9.71427 8.10837C8.99529 7.47711 7.9851 7.30205 7.02866 7.643ZM15.9064 7.59481C15.6827 7.65966 15.3128 7.92542 15.0845 8.1855C14.7112 8.61068 14.6754 8.72153 14.7296 9.2847C14.8231 10.259 15.101 10.4521 17.1206 10.9467C17.53 11.0469 17.6697 11.1445 17.6697 11.33C17.6697 11.9127 16.7174 11.9617 15.6799 11.4323L15.1639 11.1692L14.8651 11.5401C14.4648 12.037 14.5292 12.2352 15.2164 12.6199C15.7023 12.892 15.9639 12.9443 16.8299 12.9428C18.4333 12.9399 19.1339 12.4207 19.1339 11.2351C19.1339 10.4097 18.5764 9.90265 17.3343 9.59826C16.2656 9.33638 16.0568 9.22411 16.1564 8.96468C16.2761 8.6528 16.9245 8.58226 17.5534 8.81262C18.3905 9.1192 18.4635 9.10874 18.7402 8.64221C18.987 8.22619 18.9873 8.21134 18.7513 8.0302C18.134 7.55644 16.7631 7.34662 15.9064 7.59481ZM28.9433 7.66806C27.9994 8.00229 27.2303 9.167 27.2303 10.2625C27.2303 10.8714 27.5907 11.7415 28.0312 12.196C28.48 12.6591 29.3588 13.0092 30.0722 13.0092C30.7168 13.0092 31.7945 12.6733 32.0476 12.3936C32.2412 12.1797 32.233 12.1331 31.9365 11.7542C31.6227 11.3533 31.6081 11.349 31.1718 11.5313C30.9271 11.6336 30.4589 11.7172 30.1314 11.7172C29.6455 11.7172 29.4664 11.6477 29.1583 11.3396C28.9505 11.1318 28.7806 10.8993 28.7806 10.8228C28.7806 10.7296 29.4204 10.6836 30.7186 10.6836H32.6565V10.3196C32.6565 9.63315 32.2846 8.68239 31.8526 8.26418C31.0415 7.47918 30.0505 7.27608 28.9433 7.66806ZM8.80227 9.01352C9.43908 9.51429 9.26363 9.65007 7.97993 9.65007C7.25721 9.65007 6.81716 9.59891 6.81716 9.51506C6.81716 9.44077 6.95993 9.23729 7.13434 9.06287C7.54312 8.65396 8.31623 8.6311 8.80227 9.01352ZM30.6482 8.82592C30.7633 8.87011 30.9439 9.0736 31.0497 9.27811L31.242 9.65007H30.008H28.774L28.9684 9.27411C29.0753 9.06739 29.2367 8.86856 29.327 8.83213C29.5654 8.73626 30.4043 8.73239 30.6482 8.82592ZM2.9857 13.9128C0.271144 14.4806 -0.902482 17.6603 0.782892 19.8804C1.64179 21.0118 3.46709 21.562 4.96732 21.142C5.61098 20.9618 6.81716 19.9453 6.81716 19.583C6.81716 19.4756 6.53655 19.2725 6.17983 19.1219L5.54251 18.8526L5.24316 19.173C4.56461 19.8997 3.78142 20.0362 2.85792 19.5892C2.09502 19.2198 1.5759 18.1976 1.69825 17.3055C1.86194 16.1108 2.70935 15.3347 3.8499 15.3347C4.42082 15.3347 5.18334 15.706 5.31447 16.0479C5.35491 16.1531 5.4792 16.2391 5.59083 16.2391C5.92002 16.2391 6.81716 15.7319 6.81716 15.5457C6.81716 15.2657 5.90645 14.413 5.34044 14.1629C4.68205 13.872 3.68633 13.7663 2.9857 13.9128ZM7.59234 17.5311V21.1486H8.30293H9.01351V19.4139C9.01351 17.6936 9.01635 17.6768 9.35394 17.4113C9.56298 17.2468 9.88417 17.1435 10.1864 17.1435C10.9774 17.1435 11.0807 17.4077 11.0807 19.4332V21.1486H11.7912H12.5018L12.4999 19.0491C12.4978 16.7962 12.4358 16.5195 11.8326 16.0717C11.3453 15.7098 10.2271 15.7197 9.59722 16.0914C9.33909 16.2438 9.10214 16.3683 9.07074 16.3683C9.03922 16.3683 9.01351 15.816 9.01351 15.1409V13.9136H8.30293H7.59234V17.5311ZM24.1295 17.5244V21.1486H24.8401H25.5507V20.458C25.5507 19.9531 25.6143 19.71 25.787 19.5537C25.917 19.4361 26.0561 19.3398 26.0962 19.3398C26.1364 19.3398 26.4473 19.7468 26.7871 20.2442L27.4051 21.1486H28.2867C28.7715 21.1486 29.1682 21.1167 29.1682 21.0778C29.1682 21.0388 28.7322 20.4312 28.1992 19.7274C27.6663 19.0237 27.2303 18.3952 27.2303 18.3308C27.2303 18.2663 27.6641 17.7187 28.1943 17.1138C28.7246 16.5089 29.1218 15.9775 29.0773 15.9328C29.0326 15.8881 28.6591 15.8515 28.2473 15.8515C27.4164 15.8515 27.472 15.8122 26.2848 17.2356L25.6153 18.0384L25.5507 16.0082L25.4861 13.9782L24.8078 13.9391L24.1295 13.9V17.5244ZM38.6858 13.9997C38.6384 14.047 38.5996 14.6084 38.5996 15.2471C38.5996 16.3435 38.5869 16.3971 38.3735 16.2073C37.7629 15.6647 36.5339 15.6861 35.7372 16.2533C34.6482 17.0288 34.5021 19.4882 35.4822 20.5464C35.669 20.7482 35.9788 20.9952 36.1707 21.0955C36.6819 21.3625 37.6801 21.3255 38.1797 21.0208C38.5223 20.8119 38.5996 20.8002 38.5996 20.9567C38.5996 21.1051 38.7753 21.1486 39.3748 21.1486H40.15V17.5311V13.9136H39.461C39.0819 13.9136 38.7331 13.9523 38.6858 13.9997ZM41.3073 14.182C41.133 14.5079 41.2133 14.7557 41.5519 14.9368C41.7489 15.0422 41.8722 15.0187 42.1035 14.8313C42.3663 14.6185 42.3834 14.5499 42.2475 14.2517C42.0547 13.8284 41.5179 13.7886 41.3073 14.182ZM42.1387 14.3411C42.253 14.5279 42.2318 14.6117 42.0327 14.7596C41.8958 14.8612 41.7505 14.908 41.7098 14.8636C41.6691 14.819 41.7085 14.7566 41.7972 14.7249C42.0211 14.645 42.0008 14.172 41.7735 14.172C41.6693 14.172 41.567 14.3275 41.5397 14.5273C41.4994 14.8222 41.4735 14.8439 41.3874 14.6548C41.2633 14.3819 41.5246 14.0145 41.8038 14.0695C41.9092 14.0903 42.06 14.2125 42.1387 14.3411ZM15.1504 15.8404C13.7921 16.1807 13.0156 17.1847 13.0215 18.5928C13.0284 20.262 14.1179 21.2812 15.8891 21.2749C16.6861 21.2721 17.6605 20.9602 17.855 20.6455C17.9586 20.4778 17.5455 19.7265 17.3511 19.7294C17.2776 19.7304 16.9577 19.8216 16.6403 19.9322C16.2865 20.0553 15.8931 20.1013 15.6245 20.0509C15.1911 19.9697 14.569 19.478 14.569 19.2165C14.569 19.1287 15.2253 19.0814 16.4423 19.0814H18.3157V18.4608C18.3157 17.5616 17.7949 16.5802 17.1081 16.1851C16.4989 15.8346 15.7204 15.6975 15.1504 15.8404ZM20.9642 15.8404C19.9234 16.1013 19.1052 16.8801 18.8265 17.8753C18.4853 19.0938 19.1518 20.5075 20.3171 21.0368C21.0233 21.3576 22.0957 21.3472 22.7863 21.0129C23.6921 20.5744 23.7479 20.4182 23.1837 19.9012L22.6995 19.4573L22.3634 19.7216C21.8376 20.1353 21.2165 20.0702 20.6929 19.5466C20.1946 19.0482 20.1104 18.4413 20.4487 17.7869C20.797 17.1135 21.5266 16.9538 22.385 17.3631L22.8456 17.5828L23.2538 17.1745C23.6488 16.7795 23.6546 16.7578 23.4319 16.5118C22.9464 15.9753 21.7379 15.6465 20.9642 15.8404ZM31.0983 15.8989C30.2205 16.1352 29.6953 16.5728 29.3289 17.3732C29.0628 17.9546 29.019 18.2038 29.0796 18.7918C29.1752 19.7172 29.7048 20.583 30.393 20.9389C31.3331 21.4249 32.918 21.3563 33.786 20.7919C34.0688 20.6079 34.0703 20.5945 33.8506 20.2157C33.5508 19.6991 33.414 19.6635 32.7308 19.9245C31.9555 20.2204 31.3558 20.1015 30.9011 19.5615L30.5513 19.146L32.5082 19.1104L34.4653 19.0747V18.7139C34.4653 18.1278 34.0954 17.0552 33.753 16.6483C33.1546 15.937 32.0817 15.6342 31.0983 15.8989ZM16.5773 17.3315C16.7518 17.5059 16.8945 17.7094 16.8945 17.7837C16.8945 17.8675 16.4545 17.9187 15.7317 17.9187C15.009 17.9187 14.569 17.8675 14.569 17.7837C14.569 17.7094 14.7117 17.5059 14.8862 17.3315C15.3268 16.8908 16.1367 16.8908 16.5773 17.3315ZM32.5745 17.2821C33.0258 17.637 33.0045 17.8684 32.5112 17.9671C31.9262 18.0842 30.9418 18.0626 30.7294 17.9281C30.5823 17.835 30.6244 17.7346 30.9457 17.4134C31.4294 16.9297 32.0617 16.8786 32.5745 17.2821ZM38.3124 17.3447C38.5681 17.5236 38.5996 17.6581 38.5996 18.5687C38.5996 19.5707 38.5918 19.5956 38.2185 19.7887C37.5978 20.1096 36.9516 19.9884 36.5739 19.4803C36.1491 18.9086 36.2915 17.7145 36.8295 17.3377C37.1894 17.0856 37.9477 17.0891 38.3124 17.3447Z" fill="#868491"/>
</svg>
