<svg width="99" height="23" viewBox="0 0 99 23" fill="none" xmlns="http://www.w3.org/2000/svg">
<g clip-path="url(#clip0_6190_47216)">
<path fill-rule="evenodd" clip-rule="evenodd" d="M28.818 13.1924C28.4323 12.6692 27.7764 12.2413 26.9821 12.2413C25.511 12.2413 24.4501 13.3641 24.4501 14.8849C24.4501 16.4062 25.511 17.5288 26.9821 17.5288C27.6694 17.5288 28.3118 17.2357 28.6478 16.9437C28.6704 16.924 28.682 16.8958 28.682 16.8659V16.041C28.682 15.9893 28.64 15.9471 28.5882 15.9471H26.6961C26.6209 15.9471 26.5599 15.886 26.5599 15.8109V14.5867C26.5599 14.5114 26.6209 14.4503 26.6961 14.4503H30.0886V12.6334L28.9932 13.2333C28.9349 13.2653 28.8575 13.246 28.818 13.1924ZM12.8928 14.052H14.9136C15.4923 14.052 15.8541 13.7258 15.8541 13.207C15.8541 12.7118 15.4923 12.3619 14.9136 12.3619H12.8928C12.8235 12.3619 12.7676 12.4182 12.7676 12.4874V13.9267C12.7676 13.9958 12.8235 14.052 12.8928 14.052ZM21.1086 18.7926C21.1086 18.8548 21.0583 18.9049 20.9965 18.9049H19.5087C19.4466 18.9049 19.3964 18.8548 19.3964 18.7926V10.9654C19.3964 10.9035 19.4466 10.8532 19.5087 10.8532H20.9965C21.0583 10.8532 21.1086 10.9035 21.1086 10.9654V18.7926ZM29.661 0.0523436L14.9065 10.8532H15.2873C16.8186 10.8532 17.6022 11.8307 17.6022 12.905C17.6022 13.7409 17.1659 14.3583 16.5805 14.6312C16.4832 14.6767 16.4867 14.8144 16.5861 14.8551C17.2686 15.1347 17.7591 15.8659 17.7591 16.7198C17.7591 17.9392 16.9633 18.9049 15.4201 18.9049H11.1807C11.1114 18.9049 11.0552 18.8489 11.0552 18.7794V13.6723L0.110564 21.6843C-0.0990934 21.838 0.00922964 22.1706 0.26942 22.1706H29.8198C29.9682 22.1706 30.0886 22.05 30.0886 21.9015V17.8493C29.2978 18.5875 28.2581 19.0499 26.9819 19.0499C24.619 19.0499 22.6899 17.4203 22.6899 14.8849C22.6899 12.3377 24.619 10.7203 26.9819 10.7203C28.4678 10.7203 29.4631 11.3942 30.0886 12.2175V0.269503C30.0886 0.0493629 29.8386 -0.0776391 29.661 0.0523436ZM12.8928 17.3958H14.9859C15.6248 17.3958 16.0105 17.0578 16.0105 16.4784C16.0105 15.9716 15.6493 15.5609 14.9859 15.5609H12.8928C12.8235 15.5609 12.7676 15.6172 12.7676 15.6864V17.2704C12.7676 17.3396 12.8235 17.3958 12.8928 17.3958ZM38.6645 17.1516L37.7422 16.6728C37.6828 16.6418 37.6078 16.6644 37.5718 16.721C37.1818 17.3332 36.4622 17.7878 35.6803 17.7878C34.1453 17.7878 33.0056 16.5565 33.0056 14.8783C33.0056 13.1764 34.1453 11.9691 35.6803 11.9691C36.4617 11.9691 37.181 12.4123 37.5713 13.0329C37.6076 13.0908 37.6834 13.1131 37.7436 13.0805L38.6588 12.5814C38.7284 12.5434 38.7529 12.4564 38.7101 12.3892C38.1312 11.4768 37.1724 10.7136 35.6803 10.7136C33.3892 10.7136 31.6098 12.3919 31.6098 14.8783C31.6098 17.3531 33.3892 19.0432 35.6803 19.0432C37.1708 19.0432 38.1185 18.2598 38.7171 17.3469C38.7626 17.2778 38.7376 17.1895 38.6645 17.1516ZM43.4715 17.7878C41.8999 17.7878 40.8987 16.5324 40.8987 14.8784C40.8987 13.2128 41.8999 11.9691 43.4715 11.9691C45.0313 11.9691 46.0441 13.2128 46.0441 14.8784C46.0441 16.5324 45.0313 17.7878 43.4715 17.7878ZM42.3722 10.8545C40.643 11.3171 39.5017 12.8753 39.5017 14.8784C39.5017 17.2808 41.1432 19.0433 43.4715 19.0433C45.4541 19.0433 46.9508 17.7523 47.341 15.8738C47.9767 12.8147 45.2945 10.0729 42.3722 10.8545ZM57.0988 10.8466H55.3339C55.2554 10.8466 55.185 10.8945 55.1562 10.9677L53.0218 16.4925L50.8752 10.9672C50.8464 10.8945 50.776 10.8466 50.6975 10.8466H48.9324C48.8802 10.8466 48.8378 10.8892 48.8378 10.9414V18.8037C48.8378 18.856 48.8802 18.8985 48.9324 18.8985H50.154C50.2062 18.8985 50.2486 18.856 50.2486 18.8037V12.6815L52.7035 18.8557C52.7137 18.8815 52.7387 18.8985 52.7664 18.8985H53.2771C53.3048 18.8985 53.3298 18.8815 53.34 18.8557L55.7828 12.6815V18.8037C55.7828 18.856 55.825 18.8985 55.8774 18.8985H57.0988C57.1512 18.8985 57.1934 18.856 57.1934 18.8037V10.9414C57.1934 10.8892 57.1512 10.8466 57.0988 10.8466ZM75.1395 10.8466H69.9201C69.8397 10.8466 69.7747 10.9117 69.7747 10.9922V18.7529C69.7747 18.8334 69.8397 18.8985 69.9201 18.8985H75.1395C75.2198 18.8985 75.2849 18.8334 75.2849 18.7529V17.8008C75.2849 17.7203 75.2198 17.6551 75.1395 17.6551H71.331C71.2506 17.6551 71.1855 17.59 71.1855 17.5095V15.5552C71.1855 15.4747 71.2506 15.4095 71.331 15.4095H75.0553C75.1354 15.4095 75.2008 15.3442 75.2008 15.264V14.3118C75.2008 14.2313 75.1354 14.1662 75.0553 14.1662H71.331C71.2506 14.1662 71.1855 14.1011 71.1855 14.0207V12.2356C71.1855 12.1551 71.2506 12.0899 71.331 12.0899H75.1395C75.2198 12.0899 75.2849 12.0246 75.2849 11.9444V10.9922C75.2849 10.9117 75.2198 10.8466 75.1395 10.8466ZM80.6418 14.6491H78.8447C78.7651 14.6491 78.7006 14.5846 78.7006 14.5049V12.234C78.7006 12.1544 78.7651 12.0898 78.8447 12.0898H80.6418C81.4372 12.0898 82.0161 12.585 82.0161 13.3576C82.0161 14.1421 81.4372 14.6491 80.6418 14.6491ZM81.7487 15.6938C82.6489 15.4667 83.4628 14.6949 83.4628 13.3695C83.4628 11.8726 82.414 10.8467 80.8224 10.8467H77.4338C77.3542 10.8467 77.2897 10.9114 77.2897 10.991V18.7541C77.2897 18.8338 77.3542 18.8986 77.4338 18.8986H78.5563C78.6358 18.8986 78.7006 18.8338 78.7006 18.7541V16.0367C78.7006 15.957 78.7651 15.8925 78.8447 15.8925H80.029C80.08 15.8925 80.1271 15.9194 80.1532 15.9633L81.8417 18.8275C81.8675 18.8714 81.9148 18.8986 81.9659 18.8986H83.2631C83.3762 18.8986 83.4458 18.7745 83.3856 18.6784C83.0134 18.0828 81.9911 16.4477 81.6549 15.9097C81.6014 15.8247 81.6514 15.7183 81.7487 15.6938ZM94.5426 12.0898H98.3583C98.4366 12.0898 98.5 12.0263 98.5 11.9477V10.9887C98.5 10.9103 98.4366 10.8465 98.3583 10.8465H93.1317C93.0535 10.8465 92.9898 10.9103 92.9898 10.9887V18.7563C92.9898 18.8349 93.0535 18.8984 93.1317 18.8984H98.3583C98.4366 18.8984 98.5 18.8349 98.5 18.7563V17.7971C98.5 17.7188 98.4366 17.6553 98.3583 17.6553H94.5426C94.4641 17.6553 94.4007 17.5915 94.4007 17.5132V15.5516C94.4007 15.4731 94.4641 15.4095 94.5426 15.4095H98.2739C98.3524 15.4095 98.4159 15.346 98.4159 15.2674V14.3083C98.4159 14.2299 98.3524 14.1662 98.2739 14.1662H94.5426C94.4641 14.1662 94.4007 14.1026 94.4007 14.0241V12.2319C94.4007 12.1534 94.4641 12.0898 94.5426 12.0898ZM91.5504 17.1181L90.6281 16.6393C90.5687 16.6084 90.4938 16.631 90.4577 16.6875C90.0677 17.2998 89.3482 17.7543 88.5662 17.7543C87.0312 17.7543 85.8915 16.5231 85.8915 14.8449C85.8915 13.1429 87.0312 11.9356 88.5662 11.9356C89.3476 11.9356 90.0669 12.3789 90.4572 12.9995C90.4935 13.0573 90.5693 13.0797 90.6295 13.0471L91.5447 12.5478C91.6143 12.5099 91.6388 12.4227 91.5961 12.3557C91.0171 11.4434 90.0583 10.6801 88.5662 10.6801C86.2751 10.6801 84.4957 12.3585 84.4957 14.8449C84.4957 17.3197 86.2751 19.0098 88.5662 19.0098C90.0564 19.0098 91.0045 18.2264 91.603 17.3135C91.6485 17.2444 91.6235 17.1561 91.5504 17.1181ZM67.5147 10.8466H65.7498C65.6713 10.8466 65.6009 10.8945 65.5721 10.9677L63.4376 16.4925L61.2911 10.9672C61.2623 10.8945 61.1919 10.8466 61.1134 10.8466H59.3482C59.2961 10.8466 59.2536 10.8892 59.2536 10.9414V18.8037C59.2536 18.856 59.2961 18.8985 59.3482 18.8985H60.5699C60.622 18.8985 60.6645 18.856 60.6645 18.8037V12.6815L63.1194 18.8557C63.1296 18.8815 63.1546 18.8985 63.1823 18.8985H63.693C63.7207 18.8985 63.7457 18.8815 63.7559 18.8557L66.1987 12.6815V18.8037C66.1987 18.856 66.2409 18.8985 66.2933 18.8985H67.5147C67.5671 18.8985 67.6093 18.856 67.6093 18.8037V10.9414C67.6093 10.8892 67.5671 10.8466 67.5147 10.8466Z" fill="#868491"/>
</g>
<defs>
<clipPath id="clip0_6190_47216">
<rect width="98.5" height="22.3864" fill="white"/>
</clipPath>
</defs>
</svg>
