<svg width="83" height="22" viewBox="0 0 83 22" fill="none" xmlns="http://www.w3.org/2000/svg">
<g clip-path="url(#clip0_5141_51436)">
<path d="M8.51917 10.5762H5.11098L5.8476 7.25619H8.99988C10.0408 7.25619 10.6478 7.81298 10.6478 8.62569C10.6478 9.68913 9.86273 10.5762 8.51917 10.5762ZM14.1459 8.29369C14.1459 6.01292 12.3717 4.34082 9.28 4.34082H2.98065L-0.109375 18.2831H3.40429L4.466 13.4933H6.52371L8.56067 18.2831H12.0674L9.88867 13.265C12.4997 12.8587 14.1459 10.7785 14.1459 8.29369ZM20.3121 13.061L23.3208 7.92192L24.4586 13.061H20.3121ZM21.896 4.34082L13.7413 18.2831H17.2463L18.6106 15.9712L25.1053 15.9747L25.6172 18.2831H29.1205L26.0477 4.34082H21.8977M39.1254 10.5762H36.0095L36.7409 7.25619H39.4557C40.5191 7.25619 41.1779 7.76284 41.1779 8.62569C41.1779 9.68913 40.3652 10.5762 39.1254 10.5762ZM39.8084 4.34082H33.8774L30.7874 18.2831H34.2907L35.3627 13.4898L39.2776 13.4933C42.6235 13.4933 44.6518 10.9825 44.6518 8.34557C44.6518 5.98872 42.8016 4.34082 39.8102 4.34082M51.2521 4.34082H47.7367L44.6484 18.2831H48.1603L51.2521 4.34082Z" fill="#868491"/>
<path d="M76.5673 4.34082H65.4954C65.6649 4.51028 65.8274 4.68492 65.9813 4.86994C67.2229 6.36049 67.8782 8.23663 67.8782 10.2978C67.8782 13.4795 66.5277 16.3482 64.3594 18.2831H71.1412L74.3591 10.3358H70.3233L70.9994 7.25447H79.0054L74.8001 18.2831H76.4462C80.2902 18.3073 82.8874 15.1429 82.8874 11.3007C82.8874 7.45678 80.4112 4.34082 76.5673 4.34082Z" fill="#868491"/>
<path d="M57.0094 15.3712H55.0727L56.871 7.25792L58.697 7.25619C60.7081 7.25619 61.8372 8.75192 61.8372 10.6194C61.8372 13.1354 60.0285 15.3712 57.0094 15.3712ZM64.0488 6.61294C62.8384 5.15699 60.8499 4.34082 58.5034 4.34082H54.0024L50.9141 18.2831H56.5771C58.7731 18.2831 60.4694 17.7989 61.7594 17.0243C64.3843 15.4455 65.3163 12.6616 65.3163 10.2978C65.3163 8.82282 64.8529 7.57782 64.0488 6.61294Z" fill="#868491"/>
</g>
<defs>
<clipPath id="clip0_5141_51436">
<rect width="83" height="20.75" fill="white" transform="translate(0 0.625)"/>
</clipPath>
</defs>
</svg>
