<svg width="17" height="16" viewBox="0 0 17 16" fill="none" xmlns="http://www.w3.org/2000/svg">
  <g clipPath="url(#clip0_3442_20776)">
    <path d="M8.59191 11.8182L12.0119 13.9213C12.1006 13.9752 12.2034 14.0015 12.3071 13.997C12.4108 13.9925 12.5108 13.9574 12.5946 13.8961C12.6783 13.8347 12.742 13.7499 12.7776 13.6524C12.8131 13.5549 12.819 13.449 12.7944 13.3482L11.8644 9.42379L14.9082 6.79879C14.9858 6.73064 15.0417 6.64127 15.0691 6.54169C15.0965 6.44211 15.0941 6.33669 15.0623 6.23845C15.0304 6.14021 14.9705 6.05344 14.8899 5.98885C14.8093 5.92427 14.7116 5.8847 14.6088 5.87504L10.6144 5.55004L9.07566 1.82504C9.03643 1.72893 8.96947 1.6467 8.88331 1.58881C8.79715 1.53092 8.69571 1.5 8.59191 1.5C8.48811 1.5 8.38666 1.53092 8.3005 1.58881C8.21435 1.6467 8.14738 1.72893 8.10816 1.82504L6.56941 5.55004L2.57503 5.87504C2.47151 5.88413 2.37296 5.92352 2.2917 5.98829C2.21044 6.05307 2.15006 6.14035 2.11812 6.23924C2.08618 6.33813 2.08409 6.44424 2.11211 6.54431C2.14013 6.64439 2.19701 6.73398 2.27566 6.80191L5.31941 9.42691L4.38941 13.3482C4.36482 13.449 4.37068 13.5549 4.40625 13.6524C4.44182 13.7499 4.50551 13.8347 4.58925 13.8961C4.673 13.9574 4.77305 13.9925 4.87675 13.997C4.98046 14.0015 5.08317 13.9752 5.17191 13.9213L8.59191 11.8182Z" stroke="#653EE8" strokeLinecap="round" strokeLinejoin="round"/>
  </g>
  <defs>
    <clipPath id="clip0_3442_20776">
      <rect width="16" height="16" fill="white" transform="translate(0.592529)"/>
    </clipPath>
  </defs>
</svg> 